<svg xml:space="preserve" viewBox="98.54 302.27 900.7199999999999 501.12" version="1.1" xmlns:xlink="http://www.w3.org/1999/xlink" xmlns="http://www.w3.org/2000/svg" style="max-height: 500px" width="900.7199999999999" height="501.12">
<desc>Created with Fabric.js 5.2.4</desc>
<defs>
</defs>
<rect fill="transparent" height="100%" width="100%" y="0" x="0"/>
<g id="132bde89-8729-46c0-8db1-477790538383" transform="matrix(1 0 0 1 540 540)">
</g>
<g id="df2229ef-c1c2-42dd-bd2c-a67fd4cf437a" transform="matrix(1 0 0 1 540 540)">
<rect height="1080" width="1080" ry="0" rx="0" y="-540" x="-540" style="stroke: none; stroke-width: 1; stroke-dasharray: none; stroke-linecap: butt; stroke-dashoffset: 0; stroke-linejoin: miter; stroke-miterlimit: 4; fill: rgb(255,255,255); fill-rule: nonzero; opacity: 1; visibility: hidden;"/>
</g>
<g transform="matrix(1 0 0 1 540 540)">
<rect height="1080" width="1080" ry="0" rx="0" y="-540" x="-540" style="stroke: none; stroke-width: 1; stroke-dasharray: none; stroke-linecap: butt; stroke-dashoffset: 0; stroke-linejoin: miter; stroke-miterlimit: 4; fill: rgb(255,255,255); fill-rule: nonzero; opacity: 1; visibility: hidden;"/>
</g>
<g transform="matrix(1 0 0 1 540 540)">
<rect height="1080" width="1080" ry="0" rx="0" y="-540" x="-540" style="stroke: none; stroke-width: 1; stroke-dasharray: none; stroke-linecap: butt; stroke-dashoffset: 0; stroke-linejoin: miter; stroke-miterlimit: 4; fill: rgb(255,255,255); fill-rule: nonzero; opacity: 1; visibility: hidden;"/>
</g>
<g transform="matrix(0.07 0 0 0.07 628.69 702.09)">
<path stroke-linecap="round" d="M 9805 11662 C 9675 11617 9580 11558 9483 11461 C 9248 11226 9194 10868 9347 10563 C 9439 10380 9639 10220 9845 10164 C 9935 10140 10117 10135 10228 10153 C 10464 10192 10685 10364 10796 10595 C 10840 10688 10859 10765 10866 10880 C 10874 11007 10858 11114 10816 11211 C 10719 11435 10560 11583 10330 11662 C 10240 11693 10226 11695 10075 11697 L 9915 11700 L 9805 11662 z M 10264 11461 C 10442 11398 10567 11262 10606 11091 C 10627 10998 10632 10921 10621 10850 C 10585 10614 10503 10497 10310 10406 C 10224 10365 10110 10346 9995 10354 C 9762 10369 9577 10532 9515 10775 C 9491 10870 9495 11007 9525 11096 C 9561 11203 9580 11237 9648 11310 C 9718 11386 9815 11443 9923 11471 C 10019 11496 10178 11491 10264 11461 z" transform="translate(-10064.41, -10921.09)" style="stroke: none; stroke-width: 1; stroke-dasharray: none; stroke-linecap: butt; stroke-dashoffset: 0; stroke-linejoin: miter; stroke-miterlimit: 4; fill: rgb(4,4,4); fill-rule: nonzero; opacity: 1;"/>
</g>
<g transform="matrix(0.07 0 0 0.07 747.66 701.89)">
<path stroke-linecap="round" d="M 11690 11688 C 11671 11683 11628 11671 11595 11663 C 11454 11625 11308 11527 11205 11399 C 11058 11217 10999 10951 11059 10734 C 11090 10620 11159 10491 11240 10398 C 11273 10360 11423 10249 11480 10220 C 11688 10115 11957 10109 12181 10204 C 12393 10294 12563 10488 12622 10708 C 12652 10820 12652 11015 12622 11125 C 12583 11265 12527 11364 12430 11461 C 12331 11561 12238 11619 12102 11667 C 12012 11699 12002 11700 11867 11699 C 11789 11698 11709 11694 11690 11688 z M 12011 11470 C 12105 11446 12164 11413 12233 11347 C 12360 11226 12410 11102 12410 10912 C 12410 10815 12406 10784 12386 10728 C 12336 10586 12244 10478 12124 10417 C 12013 10361 11955 10349 11806 10354 C 11678 10358 11676 10359 11593 10400 C 11415 10488 11296 10658 11275 10850 C 11269 10913 11284 11039 11310 11132 C 11322 11175 11377 11259 11429 11313 C 11567 11460 11806 11524 12011 11470 z" transform="translate(-11840.14, -10918)" style="stroke: none; stroke-width: 1; stroke-dasharray: none; stroke-linecap: butt; stroke-dashoffset: 0; stroke-linejoin: miter; stroke-miterlimit: 4; fill: rgb(4,4,4); fill-rule: nonzero; opacity: 1;"/>
</g>
<g transform="matrix(0.07 0 0 0.07 929.62 701.7)">
<path stroke-linecap="round" d="M 14330 11671 C 14226 11641 14193 11626 14108 11569 C 13994 11491 13980 11431 14058 11348 C 14072 11332 14093 11320 14104 11320 C 14124 11320 14232 11381 14259 11407 C 14281 11429 14341 11457 14419 11480 C 14483 11500 14507 11502 14605 11497 C 14690 11493 14730 11486 14769 11469 C 14831 11443 14897 11373 14906 11323 C 14924 11227 14880 11135 14795 11088 C 14745 11060 14709 11049 14505 10990 C 14308 10934 14266 10919 14208 10884 C 14032 10777 13969 10578 14054 10397 C 14097 10304 14160 10241 14252 10196 C 14419 10114 14646 10109 14855 10182 C 14931 10208 15017 10263 15031 10293 C 15045 10325 15026 10395 14994 10427 C 14966 10455 14963 10454 14847 10404 C 14718 10348 14530 10325 14410 10351 C 14348 10364 14284 10412 14257 10464 C 14190 10593 14296 10732 14494 10775 C 14527 10782 14587 10795 14625 10803 C 14803 10842 14959 10918 15038 11005 C 15108 11082 15125 11135 15125 11280 C 15124 11384 15122 11400 15098 11445 C 15039 11558 14957 11625 14823 11671 C 14741 11698 14727 11700 14581 11699 C 14442 11699 14415 11696 14330 11671 z" transform="translate(-14567, -10914.92)" style="stroke: none; stroke-width: 1; stroke-dasharray: none; stroke-linecap: butt; stroke-dashoffset: 0; stroke-linejoin: miter; stroke-miterlimit: 4; fill: rgb(4,4,4); fill-rule: nonzero; opacity: 1;"/>
</g>
<g transform="matrix(0.07 0 0 0.07 140.04 718.95)">
<path stroke-linecap="round" d="M 3127 11683 C 3069 11674 3069 11671 3071 11228 C 3071 11007 3076 10803 3080 10777 C 3090 10709 3117 10685 3180 10685 C 3220 10685 3235 10690 3255 10710 C 3299 10755 3308 10835 3309 11219 C 3311 11603 3308 11645 3276 11665 C 3253 11680 3170 11690 3127 11683 z" transform="translate(-3189.95, -11185.14)" style="stroke: rgb(4,4,4); stroke-width: 1; stroke-dasharray: none; stroke-linecap: butt; stroke-dashoffset: 0; stroke-linejoin: miter; stroke-miterlimit: 4; fill: rgb(4,4,4); fill-rule: nonzero; opacity: 1;"/>
</g>
<g transform="matrix(0.07 0 0 0.07 221.68 701.56)">
<path stroke-linecap="round" d="M 3653 11679 C 3632 11673 3619 11662 3616 11647 C 3613 11635 3609 11304 3605 10912 L 3600 10199 L 3624 10176 C 3638 10161 3665 10149 3693 10145 C 3761 10135 4418 10146 4475 10159 C 4629 10193 4731 10275 4807 10427 C 4883 10579 4879 10681 4790 10866 C 4726 10998 4614 11087 4458 11126 C 4412 11138 4325 11143 4130 11147 C 3984 11150 3861 11156 3857 11160 C 3852 11164 3849 11269 3850 11393 C 3851 11634 3848 11665 3822 11675 C 3791 11687 3685 11690 3653 11679 z M 4425 10910 C 4556 10860 4620 10774 4620 10644 C 4620 10510 4583 10443 4480 10389 C 4437 10366 4425 10365 4160 10360 C 4009 10357 3875 10358 3863 10362 L 3840 10369 L 3847 10647 C 3851 10834 3856 10928 3864 10933 C 3870 10937 3985 10939 4120 10937 C 4345 10933 4370 10931 4425 10910 z" transform="translate(-4230.31, -10913.47)" style="stroke: rgb(223,68,73); stroke-width: 1; stroke-dasharray: none; stroke-linecap: butt; stroke-dashoffset: 0; stroke-linejoin: miter; stroke-miterlimit: 4; fill: rgb(223,68,73); fill-rule: nonzero; opacity: 1;"/>
</g>
<g transform="matrix(0.07 0 0 0.07 328.22 701.49)">
<path stroke-linecap="round" d="M 5198 11680 C 5162 11677 5128 11671 5123 11667 C 5115 11658 5116 10232 5125 10194 C 5134 10154 5173 10147 5397 10142 C 5643 10137 5863 10151 5974 10180 C 6140 10222 6298 10332 6390 10468 C 6464 10576 6498 10678 6512 10830 C 6539 11107 6452 11347 6272 11496 C 6151 11596 6034 11649 5890 11670 C 5811 11681 5312 11689 5198 11680 z M 5873 11456 C 5975 11432 6045 11395 6120 11324 C 6227 11223 6270 11120 6286 10935 C 6305 10709 6196 10504 6008 10412 C 5913 10365 5862 10359 5594 10362 L 5355 10365 L 5352 10885 C 5351 11171 5352 11419 5355 11437 C 5361 11468 5362 11469 5418 11472 C 5558 11480 5807 11471 5873 11456 z" transform="translate(-5817.2, -10912.45)" style="stroke: rgb(223,68,73); stroke-width: 1; stroke-dasharray: none; stroke-linecap: butt; stroke-dashoffset: 0; stroke-linejoin: miter; stroke-miterlimit: 4; fill: rgb(223,68,73); fill-rule: nonzero; opacity: 1;"/>
</g>
<g transform="matrix(0.07 0 0 0.07 429.15 701.62)">
<path stroke-linecap="round" d="M 6846 11679 C 6824 11676 6800 11664 6793 11654 C 6773 11627 6778 10217 6798 10183 C 6805 10171 6827 10156 6848 10150 C 6891 10138 7695 10137 7779 10149 C 7820 10155 7839 10164 7857 10184 C 7889 10222 7889 10289 7856 10327 L 7832 10355 L 7433 10358 C 7156 10361 7033 10365 7028 10373 C 7021 10385 7025 10828 7032 10836 C 7035 10838 7178 10842 7351 10844 C 7696 10847 7719 10851 7741 10908 C 7755 10944 7745 10999 7720 11024 C 7700 11044 7686 11045 7362 11050 L 7025 11055 L 7020 11364 L 7015 11674 L 6985 11682 C 6953 11691 6909 11690 6846 11679 z" transform="translate(-7330.57, -10914.28)" style="stroke: rgb(223,68,73); stroke-width: 1; stroke-dasharray: none; stroke-linecap: butt; stroke-dashoffset: 0; stroke-linejoin: miter; stroke-miterlimit: 4; fill: rgb(223,68,73); fill-rule: nonzero; opacity: 1;"/>
</g>
<g transform="matrix(0.07 0 0 0.07 530.57 701.54)">
<path stroke-linecap="round" d="M 8543 11683 C 8526 11681 8507 11673 8501 11666 C 8494 11657 8489 11447 8488 11009 L 8485 10365 L 8255 10360 C 8097 10357 8018 10351 8003 10342 C 7969 10323 7950 10289 7950 10249 C 7950 10202 7980 10164 8028 10150 C 8069 10139 9028 10136 9143 10147 C 9195 10151 9215 10158 9234 10177 C 9266 10209 9272 10256 9250 10301 C 9221 10358 9202 10361 8957 10359 C 8779 10358 8736 10360 8729 10371 C 8725 10379 8723 10668 8726 11015 C 8731 11539 8730 11648 8719 11662 C 8704 11680 8609 11692 8543 11683 z" transform="translate(-8606.54, -10913.08)" style="stroke: none; stroke-width: 1; stroke-dasharray: none; stroke-linecap: butt; stroke-dashoffset: 0; stroke-linejoin: miter; stroke-miterlimit: 4; fill: rgb(4,4,4); fill-rule: nonzero; opacity: 1;"/>
</g>
<g transform="matrix(0.07 0 0 0.07 851.81 701.21)">
<path stroke-linecap="round" d="M 13010 11680 C 12911 11675 12905 11674 12893 11650 C 12878 11620 12875 10365 12890 10261 C 12900 10188 12924 10156 12981 10139 C 13008 10130 13027 10131 13054 10140 C 13127 10164 13124 10130 13130 10839 L 13135 11475 L 13502 11475 L 13869 11475 L 13898 11503 C 13933 11536 13941 11569 13928 11616 C 13910 11682 13912 11681 13493 11683 C 13285 11684 13068 11683 13010 11680 z" transform="translate(-13407, -10908.05)" style="stroke: none; stroke-width: 1; stroke-dasharray: none; stroke-linecap: butt; stroke-dashoffset: 0; stroke-linejoin: miter; stroke-miterlimit: 4; fill: rgb(4,4,4); fill-rule: nonzero; opacity: 1;"/>
</g>
<g transform="matrix(0.07 0 0 0.07 141.68 658.65)">
<path stroke-linecap="round" d="M 3145 10441 C 3049 10397 3019 10297 3075 10203 C 3141 10091 3351 10142 3376 10276 C 3383 10314 3362 10380 3331 10417 C 3293 10463 3214 10473 3145 10441 z" transform="translate(-3212.13, -10300.59)" style="stroke: rgb(4,4,4); stroke-width: 1; stroke-dasharray: none; stroke-linecap: butt; stroke-dashoffset: 0; stroke-linejoin: miter; stroke-miterlimit: 4; fill: rgb(4,4,4); fill-rule: nonzero; opacity: 1;"/>
</g>
<g transform="matrix(0.07 0 0 0.07 633.09 550.84)">
<path stroke-linecap="round" d="M 9710 9744 C 9701 9741 9682 9721 9667 9698 L 9640 9656 L 9644 9256 C 9646 8991 9651 8846 9658 8827 C 9665 8812 9682 8795 9697 8789 C 9715 8782 9861 8780 10120 8782 L 10515 8785 L 10569 8755 C 10637 8717 10694 8653 10711 8592 C 10721 8556 10725 8437 10727 8090 C 10728 7840 10729 7627 10729 7617 C 10730 7607 10741 7588 10755 7575 C 10800 7529 10880 7550 10928 7619 C 10943 7642 10946 7684 10950 7985 C 10955 8321 10955 8325 10978 8358 C 11011 8403 11059 8421 11177 8430 C 11248 8435 11289 8443 11312 8457 C 11409 8513 11417 8641 11327 8693 C 11313 8700 11247 8707 11151 8710 C 11029 8714 10995 8718 10988 8730 C 10984 8738 10943 8813 10898 8895 C 10687 9284 10682 9292 10627 9327 L 10585 9355 L 10231 9357 C 10037 9358 9876 9361 9874 9363 C 9871 9365 9868 9438 9867 9523 L 9865 9680 L 9834 9711 C 9804 9741 9748 9756 9710 9744 z" transform="translate(-10514.94, -8649.31)" style="stroke: none; stroke-width: 1; stroke-dasharray: none; stroke-linecap: butt; stroke-dashoffset: 0; stroke-linejoin: miter; stroke-miterlimit: 4; fill: rgb(4,4,4); fill-rule: nonzero; opacity: 1;"/>
</g>
<g transform="matrix(0.07 0 0 0.07 522.58 490.64)">
<path stroke-linecap="round" d="M 7880 9363 C 7840 9349 7840 9346 7840 8758 C 7840 8270 7842 8190 7854 8190 C 7862 8190 7885 8181 7904 8169 C 7934 8152 7940 8142 7940 8114 C 7940 8095 7944 8080 7948 8080 C 7953 8080 7961 8054 7966 8023 L 7975 7965 L 8033 7962 L 8090 7959 L 8090 7902 C 8090 7870 8095 7839 8102 7832 C 8109 7825 8138 7820 8167 7820 C 8217 7820 8220 7819 8220 7795 C 8220 7771 8217 7770 8165 7770 L 8110 7770 L 8110 7736 L 8110 7701 L 8163 7698 L 8215 7695 L 8218 7581 C 8219 7517 8226 7460 8232 7453 C 8238 7445 8264 7440 8296 7440 L 8350 7440 L 8350 7375 L 8350 7310 L 8480 7310 L 8610 7310 L 8610 7192 C 8610 7067 8616 7050 8656 7050 C 8677 7050 8678 7046 8677 6983 L 8675 6915 L 8708 6912 C 8736 6909 8740 6905 8740 6879 L 8740 6850 L 8805 6850 L 8870 6850 L 8870 6814 L 8870 6778 L 9000 6782 C 9130 6786 9130 6786 9130 6763 C 9130 6741 9126 6740 9065 6740 L 9000 6740 L 9000 6645 L 9000 6550 L 9035 6550 C 9063 6550 9070 6554 9070 6570 C 9070 6585 9077 6590 9097 6590 L 9123 6590 L 9117 6442 C 9113 6360 9114 6289 9119 6284 C 9124 6279 9125 6258 9123 6237 C 9119 6207 9113 6199 9091 6194 C 9077 6191 9057 6185 9048 6179 C 9038 6174 9023 6170 9015 6170 C 9002 6170 9000 6161 9002 6127 L 9005 6085 L 9063 6086 C 9104 6087 9127 6093 9142 6106 C 9183 6143 9190 6180 9190 6362 C 9190 6457 9195 6552 9201 6573 C 9213 6617 9263 6677 9299 6693 C 9313 6698 9428 6706 9553 6709 L 9781 6715 L 9826 6762 C 9861 6799 9870 6816 9871 6847 C 9878 7057 9881 8472 9875 8479 C 9871 8482 9787 8487 9687 8491 C 9587 8494 9496 8500 9485 8505 C 9444 8523 9407 8556 9387 8595 C 9366 8634 9365 8648 9363 8989 C 9361 9223 9357 9347 9350 9354 C 9339 9365 7910 9374 7880 9363 z" transform="translate(-8859.11, -7726.5)" style="stroke: none; stroke-width: 1; stroke-dasharray: none; stroke-linecap: butt; stroke-dashoffset: 0; stroke-linejoin: miter; stroke-miterlimit: 4; fill: rgb(223,68,73); fill-rule: nonzero; opacity: 1;"/>
</g>
<g transform="matrix(0.07 0 0 0.07 421.87 535.9)">
<path stroke-linecap="round" d="M 7462 9330 C 7390 9297 7313 9223 7277 9150 L 7245 9085 L 7242 8463 C 7240 8038 7243 7840 7250 7840 C 7256 7840 7260 7810 7260 7765 L 7260 7690 L 7293 7690 L 7327 7690 L 7333 7798 C 7337 7863 7335 7906 7330 7908 C 7317 7913 7317 7950 7330 7950 C 7335 7950 7340 7983 7342 8023 C 7345 8087 7348 8096 7368 8105 C 7386 8113 7390 8123 7391 8165 C 7392 8192 7394 8206 7397 8195 C 7400 8184 7406 8171 7411 8165 C 7416 8160 7420 8139 7420 8118 C 7420 8097 7425 8080 7430 8080 C 7436 8080 7440 8045 7440 7995 C 7440 7917 7438 7910 7420 7910 C 7404 7910 7400 7903 7400 7875 C 7400 7844 7403 7840 7425 7840 C 7446 7840 7450 7835 7450 7808 C 7451 7790 7452 7741 7454 7700 C 7456 7659 7458 7601 7459 7573 L 7460 7520 L 7494 7520 L 7528 7520 L 7535 7783 C 7539 7928 7541 8316 7539 8646 C 7537 8975 7539 9269 7543 9298 C 7552 9348 7551 9350 7528 9349 C 7516 9349 7486 9340 7462 9330 z" transform="translate(-7394.83, -8434.58)" style="stroke: none; stroke-width: 1; stroke-dasharray: none; stroke-linecap: butt; stroke-dashoffset: 0; stroke-linejoin: miter; stroke-miterlimit: 4; fill: rgb(217,57,62); fill-rule: nonzero; opacity: 1;"/>
</g>
<g transform="matrix(0.07 0 0 0.07 589.07 440.7)">
<path stroke-linecap="round" d="M 10185 8471 C 10182 8465 10179 7941 10180 7307 C 10180 6318 10179 6152 10166 6135 C 10153 6116 10137 6115 9902 6112 L 9652 6108 L 9618 6073 L 9585 6039 L 9582 5922 C 9580 5858 9574 5800 9568 5793 C 9563 5787 9545 5778 9529 5775 C 9513 5771 9500 5762 9500 5755 C 9500 5746 9484 5740 9453 5738 L 9405 5735 L 9402 5692 C 9398 5638 9409 5624 9461 5616 C 9495 5611 9501 5606 9498 5589 C 9495 5566 9505 5566 9188 5562 L 9070 5560 L 9070 5520 L 9070 5480 L 9138 5479 C 9175 5478 9286 5478 9385 5479 C 9641 5482 9588 5450 10040 5875 C 10181 6007 10326 6142 10363 6175 C 10410 6216 10436 6248 10445 6275 C 10457 6308 10459 6496 10460 7381 C 10460 8360 10459 8449 10443 8461 C 10422 8479 10196 8487 10185 8471 z" transform="translate(-9765, -6978.93)" style="stroke: none; stroke-width: 1; stroke-dasharray: none; stroke-linecap: butt; stroke-dashoffset: 0; stroke-linejoin: miter; stroke-miterlimit: 4; fill: rgb(217,57,62); fill-rule: nonzero; opacity: 1;"/>
</g>
<g transform="matrix(0.07 0 0 0.07 453.69 503.67)">
<path stroke-linecap="round" d="M 7840 7990 L 7840 7890 L 7875 7890 L 7910 7890 L 7910 7938 C 7910 7964 7907 8009 7904 8038 C 7898 8087 7896 8090 7869 8090 L 7840 8090 L 7840 7990 z" transform="translate(-7875, -7990)" style="stroke: none; stroke-width: 1; stroke-dasharray: none; stroke-linecap: butt; stroke-dashoffset: 0; stroke-linejoin: miter; stroke-miterlimit: 4; fill: rgb(217,57,62); fill-rule: nonzero; opacity: 1;"/>
</g>
<g transform="matrix(0.07 0 0 0.07 452.64 381.2)">
<path stroke-linecap="round" d="M 7840 6184 C 7840 6163 7858 6130 7870 6130 C 7876 6130 7880 6146 7880 6165 C 7880 6193 7876 6200 7860 6200 C 7849 6200 7840 6193 7840 6184 z" transform="translate(-7860, -6165)" style="stroke: none; stroke-width: 1; stroke-dasharray: none; stroke-linecap: butt; stroke-dashoffset: 0; stroke-linejoin: miter; stroke-miterlimit: 4; fill: rgb(217,57,62); fill-rule: nonzero; opacity: 1;"/>
</g>
<g transform="matrix(0.07 0 0 0.07 512.36 337.65)">
<path stroke-linecap="round" d="M 8700 5515 L 8700 5480 L 8750 5480 L 8800 5480 L 8800 5515 L 8800 5550 L 8750 5550 L 8700 5550 L 8700 5515 z" transform="translate(-8750, -5515)" style="stroke: none; stroke-width: 1; stroke-dasharray: none; stroke-linecap: butt; stroke-dashoffset: 0; stroke-linejoin: miter; stroke-miterlimit: 4; fill: rgb(217,57,62); fill-rule: nonzero; opacity: 1;"/>
</g>
<g transform="matrix(0.07 0 0 0.07 421.4 585.82)">
<path stroke-linecap="round" d="M 7370 9220 C 7370 9207 7390 9207 7410 9220 C 7422 9228 7419 9230 7398 9230 C 7382 9230 7370 9226 7370 9220 z" transform="translate(-7393.51, -9220.13)" style="stroke: none; stroke-width: 1; stroke-dasharray: none; stroke-linecap: butt; stroke-dashoffset: 0; stroke-linejoin: miter; stroke-miterlimit: 4; fill: rgb(223,68,73); fill-rule: nonzero; opacity: 1;"/>
</g>
<g transform="matrix(0.07 0 0 0.07 498.49 465.98)">
<path stroke-linecap="round" d="M 7840 7427 C 7840 6301 7842 6176 7856 6140 C 7865 6118 7881 6095 7891 6090 C 7902 6084 8129 6080 8478 6080 C 8961 6080 9049 6082 9053 6094 C 9056 6102 9052 6111 9044 6114 C 9025 6121 9026 6140 9045 6140 C 9053 6140 9068 6144 9078 6149 C 9087 6154 9116 6164 9143 6171 C 9189 6182 9206 6205 9173 6212 C 9159 6214 9156 6224 9159 6262 C 9160 6287 9157 6311 9151 6314 C 9145 6318 9142 6344 9145 6378 C 9147 6409 9152 6476 9155 6527 L 9160 6618 L 9100 6622 C 9043 6625 9041 6624 9037 6600 C 9035 6586 9032 6605 9031 6643 L 9030 6710 L 9095 6710 L 9160 6710 L 9160 6765 L 9160 6821 L 9030 6814 L 8900 6807 L 8900 6844 L 8900 6880 L 8835 6880 L 8770 6880 L 8770 6915 C 8770 6948 8768 6950 8738 6948 C 8705 6945 8705 6945 8708 6985 C 8710 7007 8716 7027 8721 7028 C 8726 7030 8730 7043 8730 7056 C 8730 7077 8725 7080 8697 7080 C 8645 7080 8640 7092 8640 7222 L 8640 7340 L 8510 7340 L 8380 7340 L 8380 7405 L 8380 7470 L 8327 7470 C 8267 7470 8250 7482 8250 7522 L 8250 7550 L 8380 7550 L 8510 7550 L 8510 7575 C 8510 7599 8509 7599 8445 7593 L 8380 7587 L 8380 7654 L 8380 7720 L 8318 7721 C 8283 7722 8228 7726 8195 7730 L 8135 7737 L 8193 7739 L 8250 7740 L 8250 7795 L 8250 7850 L 8197 7850 C 8168 7850 8139 7855 8132 7862 C 8125 7869 8120 7900 8120 7932 L 8120 7989 L 8063 7992 L 8005 7995 L 7996 8053 C 7991 8084 7983 8110 7978 8110 C 7974 8110 7970 8125 7970 8143 C 7970 8171 7963 8181 7929 8203 C 7903 8220 7880 8228 7868 8225 C 7850 8219 7850 8227 7850 8440 C 7851 8562 7849 8665 7846 8668 C 7843 8671 7840 8112 7840 7427 z M 7869 8033 C 7868 8017 7870 7998 7874 7988 C 7878 7979 7880 7959 7877 7943 C 7874 7919 7873 7920 7871 7952 C 7871 7972 7866 7992 7860 7995 C 7843 8006 7849 8060 7867 8060 C 7870 8060 7871 8048 7869 8033 z M 8336 7658 C 8333 7645 8330 7627 8330 7618 C 8330 7604 8321 7600 8290 7600 L 8250 7600 L 8250 7640 L 8250 7680 L 8296 7680 C 8339 7680 8342 7678 8336 7658 z" transform="translate(-8515.09, -7374.01)" style="stroke: none; stroke-width: 1; stroke-dasharray: none; stroke-linecap: butt; stroke-dashoffset: 0; stroke-linejoin: miter; stroke-miterlimit: 4; fill: rgb(223,68,73); fill-rule: nonzero; opacity: 1;"/>
</g>
<g transform="matrix(0.07 0 0 0.07 417.15 540.7)">
<path stroke-linecap="round" d="M 7323 8554 C 7320 8546 7322 8534 7329 8527 C 7337 8519 7340 8523 7340 8543 C 7340 8573 7333 8578 7323 8554 z" transform="translate(-7330.82, -8546.16)" style="stroke: none; stroke-width: 1; stroke-dasharray: none; stroke-linecap: butt; stroke-dashoffset: 0; stroke-linejoin: miter; stroke-miterlimit: 4; fill: rgb(223,68,73); fill-rule: nonzero; opacity: 1;"/>
</g>
<g transform="matrix(0.07 0 0 0.07 424.16 534.31)">
<path stroke-linecap="round" d="M 7433 8450 C 7433 8420 7435 8407 7437 8423 C 7439 8438 7439 8462 7437 8478 C 7435 8493 7433 8480 7433 8450 z" transform="translate(-7435.75, -8450.18)" style="stroke: none; stroke-width: 1; stroke-dasharray: none; stroke-linecap: butt; stroke-dashoffset: 0; stroke-linejoin: miter; stroke-miterlimit: 4; fill: rgb(223,68,73); fill-rule: nonzero; opacity: 1;"/>
</g>
<g transform="matrix(0.07 0 0 0.07 425.81 534.16)">
<path stroke-linecap="round" d="M 7450 8451 C 7450 8423 7455 8398 7460 8395 C 7466 8391 7470 8410 7470 8444 C 7470 8475 7466 8500 7460 8500 C 7455 8500 7450 8478 7450 8451 z" transform="translate(-7460, -8447.24)" style="stroke: none; stroke-width: 1; stroke-dasharray: none; stroke-linecap: butt; stroke-dashoffset: 0; stroke-linejoin: miter; stroke-miterlimit: 4; fill: rgb(223,68,73); fill-rule: nonzero; opacity: 1;"/>
</g>
<g transform="matrix(0.07 0 0 0.07 417.77 532.05)">
<path stroke-linecap="round" d="M 7330 8414 C 7330 8400 7334 8391 7340 8395 C 7346 8398 7350 8410 7350 8421 C 7350 8431 7346 8440 7340 8440 C 7335 8440 7330 8428 7330 8414 z" transform="translate(-7340, -8417.02)" style="stroke: none; stroke-width: 1; stroke-dasharray: none; stroke-linecap: butt; stroke-dashoffset: 0; stroke-linejoin: miter; stroke-miterlimit: 4; fill: rgb(223,68,73); fill-rule: nonzero; opacity: 1;"/>
</g>
<g transform="matrix(0.07 0 0 0.07 496.43 433.64)">
<path stroke-linecap="round" d="M 7240 7469 C 7240 7005 7237 6416 7233 6160 C 7226 5630 7228 5616 7298 5543 C 7367 5472 7311 5475 8495 5476 C 9225 5476 9563 5480 9580 5487 L 9605 5498 L 9578 5505 C 9562 5509 9550 5516 9550 5521 C 9550 5526 9542 5530 9533 5530 C 9519 5530 9518 5532 9529 5539 C 9537 5545 9540 5555 9535 5570 C 9531 5584 9532 5595 9540 5600 C 9563 5614 9535 5643 9494 5647 C 9450 5652 9428 5666 9432 5689 C 9434 5699 9447 5705 9465 5706 C 9482 5706 9520 5710 9552 5714 C 9602 5720 9609 5724 9615 5748 C 9619 5763 9627 5781 9633 5789 C 9640 5797 9646 5824 9647 5849 C 9650 5907 9650 5904 9644 5971 C 9639 6023 9640 6028 9664 6044 C 9696 6065 9697 6074 9665 6088 C 9642 6098 9640 6097 9640 6077 C 9640 6065 9631 6048 9620 6040 C 9603 6028 9600 6014 9600 5958 C 9600 5910 9604 5889 9615 5883 C 9624 5878 9627 5866 9624 5852 C 9620 5840 9615 5832 9611 5834 C 9607 5837 9603 5829 9603 5818 C 9599 5768 9589 5767 9318 5769 C 9179 5770 8762 5772 8392 5775 C 7773 5778 7715 5780 7669 5797 C 7614 5816 7578 5847 7552 5895 C 7537 5922 7535 6003 7532 6738 L 7529 7550 L 7508 7550 C 7489 7550 7488 7554 7494 7597 C 7497 7624 7495 7657 7488 7676 C 7479 7701 7479 7715 7487 7732 C 7505 7767 7511 7917 7496 7929 C 7489 7935 7480 7937 7477 7933 C 7473 7930 7470 7968 7470 8018 C 7470 8073 7466 8110 7460 8110 C 7455 8110 7450 8128 7450 8149 C 7450 8171 7446 8192 7440 8195 C 7435 8198 7430 8212 7430 8226 C 7430 8243 7424 8250 7411 8250 C 7369 8250 7360 8240 7360 8189 C 7360 8162 7357 8140 7352 8140 C 7348 8140 7346 8160 7348 8184 C 7350 8209 7347 8237 7341 8247 C 7333 8261 7331 8250 7330 8198 C 7330 8161 7326 8128 7320 8125 C 7315 8122 7310 8088 7310 8049 C 7310 8010 7306 7980 7300 7980 C 7295 7980 7290 7955 7290 7924 C 7290 7894 7294 7871 7298 7874 C 7303 7877 7304 7865 7301 7847 C 7296 7815 7295 7815 7292 7843 C 7290 7858 7282 7870 7274 7870 C 7258 7870 7258 7864 7255 8113 C 7254 8216 7250 8303 7247 8307 C 7243 8310 7240 7933 7240 7469 z M 7297 7763 C 7294 7753 7292 7761 7292 7780 C 7292 7799 7294 7807 7297 7798 C 7299 7788 7299 7772 7297 7763 z M 9477 5518 C 9490 5504 9477 5503 9358 5505 C 9285 5507 9197 5508 9163 5509 C 9128 5509 9100 5514 9100 5520 C 9100 5525 9156 5531 9233 5533 C 9416 5538 9459 5535 9477 5518 z" transform="translate(-8459.41, -6891.34)" style="stroke: none; stroke-width: 1; stroke-dasharray: none; stroke-linecap: butt; stroke-dashoffset: 0; stroke-linejoin: miter; stroke-miterlimit: 4; fill: rgb(223,68,73); fill-rule: nonzero; opacity: 1;"/>
</g>
<g transform="matrix(0.07 0 0 0.07 587.64 490.5)">
<path stroke-linecap="round" d="M 9873 7795 C 9873 7768 9875 7757 9877 7773 C 9879 7788 9879 7810 9877 7823 C 9875 7835 9873 7823 9873 7795 z" transform="translate(-9875.75, -7796.6)" style="stroke: none; stroke-width: 1; stroke-dasharray: none; stroke-linecap: butt; stroke-dashoffset: 0; stroke-linejoin: miter; stroke-miterlimit: 4; fill: rgb(223,68,73); fill-rule: nonzero; opacity: 1;"/>
</g>
<g transform="matrix(0.07 0 0 0.07 494.62 479.66)">
<path stroke-linecap="round" d="M 8466 7651 C 8456 7635 8471 7610 8491 7610 C 8505 7610 8510 7617 8510 7635 C 8510 7653 8505 7660 8491 7660 C 8480 7660 8469 7656 8466 7651 z" transform="translate(-8486.41, -7635)" style="stroke: none; stroke-width: 1; stroke-dasharray: none; stroke-linecap: butt; stroke-dashoffset: 0; stroke-linejoin: miter; stroke-miterlimit: 4; fill: rgb(223,68,73); fill-rule: nonzero; opacity: 1;"/>
</g>
<g transform="matrix(0.07 0 0 0.07 503.24 473.37)">
<path stroke-linecap="round" d="M 8590 7540 C 8590 7493 8592 7490 8615 7490 C 8638 7490 8640 7493 8640 7540 C 8640 7587 8638 7590 8615 7590 C 8592 7590 8590 7587 8590 7540 z" transform="translate(-8615, -7540)" style="stroke: none; stroke-width: 1; stroke-dasharray: none; stroke-linecap: butt; stroke-dashoffset: 0; stroke-linejoin: miter; stroke-miterlimit: 4; fill: rgb(223,68,73); fill-rule: nonzero; opacity: 1;"/>
</g>
<g transform="matrix(0.07 0 0 0.07 586.96 468.71)">
<path stroke-linecap="round" d="M 9870 7500 C 9870 7484 9866 7470 9860 7470 C 9855 7470 9850 7457 9850 7440 C 9850 7420 9855 7410 9865 7410 C 9877 7410 9880 7423 9880 7470 C 9880 7503 9878 7530 9875 7530 C 9872 7530 9870 7517 9870 7500 z" transform="translate(-9865, -7470)" style="stroke: none; stroke-width: 1; stroke-dasharray: none; stroke-linecap: butt; stroke-dashoffset: 0; stroke-linejoin: miter; stroke-miterlimit: 4; fill: rgb(223,68,73); fill-rule: nonzero; opacity: 1;"/>
</g>
<g transform="matrix(0.07 0 0 0.07 541.8 413.34)">
<path stroke-linecap="round" d="M 9160 6675 C 9160 6666 9167 6657 9175 6654 C 9183 6650 9190 6637 9190 6624 C 9190 6596 9205 6592 9218 6616 C 9225 6628 9220 6640 9197 6661 C 9162 6694 9160 6695 9160 6675 z" transform="translate(-9190.46, -6644.26)" style="stroke: none; stroke-width: 1; stroke-dasharray: none; stroke-linecap: butt; stroke-dashoffset: 0; stroke-linejoin: miter; stroke-miterlimit: 4; fill: rgb(223,68,73); fill-rule: nonzero; opacity: 1;"/>
</g>
<g transform="matrix(0.07 0 0 0.07 535.44 377.52)">
<path stroke-linecap="round" d="M 9080 6119 C 9093 6113 9107 6104 9111 6098 C 9115 6092 9123 6091 9130 6095 C 9148 6106 9114 6130 9081 6129 L 9055 6129 L 9080 6119 z" transform="translate(-9095, -6110.82)" style="stroke: none; stroke-width: 1; stroke-dasharray: none; stroke-linecap: butt; stroke-dashoffset: 0; stroke-linejoin: miter; stroke-miterlimit: 4; fill: rgb(223,68,73); fill-rule: nonzero; opacity: 1;"/>
</g>
<g transform="matrix(0.07 0 0 0.07 578.6 344.82)">
<path stroke-linecap="round" d="M 9725 5630 C 9722 5625 9726 5617 9735 5614 C 9757 5605 9764 5615 9746 5629 C 9736 5637 9730 5638 9725 5630 z" transform="translate(-9740.13, -5623.05)" style="stroke: none; stroke-width: 1; stroke-dasharray: none; stroke-linecap: butt; stroke-dashoffset: 0; stroke-linejoin: miter; stroke-miterlimit: 4; fill: rgb(223,68,73); fill-rule: nonzero; opacity: 1;"/>
</g>
</svg>