<?xml version="1.0" encoding="UTF-8" standalone="no" ?>
<!DOCTYPE svg PUBLIC "-//W3C//DTD SVG 1.1//EN" "http://www.w3.org/Graphics/SVG/1.1/DTD/svg11.dtd">
<svg xmlns="http://www.w3.org/2000/svg" xmlns:xlink="http://www.w3.org/1999/xlink" version="1.1" width="1080" height="1080" viewBox="-140.83 -165 1080 1080" xml:space="preserve">
<desc>Created with Fabric.js 5.2.4</desc>
<defs>
</defs>
<g transform="matrix(1 0 0 1 540 540)" id="012a6966-7da4-47de-85f4-964a1960d81e"  >
<rect style="stroke: none; stroke-width: 1; stroke-dasharray: none; stroke-linecap: butt; stroke-dashoffset: 0; stroke-linejoin: miter; stroke-miterlimit: 4; fill: rgb(255,255,255); fill-rule: nonzero; opacity: 1; visibility: hidden;" vector-effect="non-scaling-stroke"  x="-540" y="-540" rx="0" ry="0" width="1080" height="1080" />
</g>
<g transform="matrix(1 0 0 1 540 540)" id="605fea48-069d-48d4-b984-17430e3b1093"  >
</g>
<g transform="matrix(3.31 0 0 3.31 -1088.11 -872.43)"  >
<rect style="stroke: none; stroke-width: 1; stroke-dasharray: none; stroke-linecap: butt; stroke-dashoffset: 0; stroke-linejoin: miter; stroke-miterlimit: 4; fill: rgb(255,255,255); fill-opacity: 0; fill-rule: nonzero; opacity: 1;" vector-effect="non-scaling-stroke"  x="-50" y="-50" rx="0" ry="0" width="100" height="100" />
</g>
<g transform="matrix(3.31 0 0 3.31 532.11 747.78)" id="df2229ef-c1c2-42dd-bd2c-a67fd4cf437a"  >
<rect style="stroke: none; stroke-width: 1; stroke-dasharray: none; stroke-linecap: butt; stroke-dashoffset: 0; stroke-linejoin: miter; stroke-miterlimit: 4; fill: rgb(255,255,255); fill-rule: nonzero; opacity: 1; visibility: hidden;" vector-effect="non-scaling-stroke"  x="-540" y="-540" rx="0" ry="0" width="1080" height="1080" />
</g>
<g transform="matrix(3.31 0 0 3.31 532.11 747.78)"  >
<rect style="stroke: none; stroke-width: 1; stroke-dasharray: none; stroke-linecap: butt; stroke-dashoffset: 0; stroke-linejoin: miter; stroke-miterlimit: 4; fill: rgb(255,255,255); fill-rule: nonzero; opacity: 1; visibility: hidden;" vector-effect="non-scaling-stroke"  x="-540" y="-540" rx="0" ry="0" width="1080" height="1080" />
</g>
<g transform="matrix(3.31 0 0 3.31 532.11 747.78)"  >
<rect style="stroke: none; stroke-width: 1; stroke-dasharray: none; stroke-linecap: butt; stroke-dashoffset: 0; stroke-linejoin: miter; stroke-miterlimit: 4; fill: rgb(255,255,255); fill-rule: nonzero; opacity: 1; visibility: hidden;" vector-effect="non-scaling-stroke"  x="-540" y="-540" rx="0" ry="0" width="1080" height="1080" />
</g>
<g transform="matrix(0.23 0 0 0.23 839.91 783.62)"  >
<path style="stroke: rgb(255,255,255); stroke-width: 1; stroke-dasharray: none; stroke-linecap: butt; stroke-dashoffset: 0; stroke-linejoin: miter; stroke-miterlimit: 4; fill: rgb(255,255,255); fill-rule: nonzero; opacity: 1;" vector-effect="non-scaling-stroke"  transform=" translate(-10514.94, -8649.31)" d="M 9710 9744 C 9701 9741 9682 9721 9667 9698 L 9640 9656 L 9644 9256 C 9646 8991 9651 8846 9658 8827 C 9665 8812 9682 8795 9697 8789 C 9715 8782 9861 8780 10120 8782 L 10515 8785 L 10569 8755 C 10637 8717 10694 8653 10711 8592 C 10721 8556 10725 8437 10727 8090 C 10728 7840 10729 7627 10729 7617 C 10730 7607 10741 7588 10755 7575 C 10800 7529 10880 7550 10928 7619 C 10943 7642 10946 7684 10950 7985 C 10955 8321 10955 8325 10978 8358 C 11011 8403 11059 8421 11177 8430 C 11248 8435 11289 8443 11312 8457 C 11409 8513 11417 8641 11327 8693 C 11313 8700 11247 8707 11151 8710 C 11029 8714 10995 8718 10988 8730 C 10984 8738 10943 8813 10898 8895 C 10687 9284 10682 9292 10627 9327 L 10585 9355 L 10231 9357 C 10037 9358 9876 9361 9874 9363 C 9871 9365 9868 9438 9867 9523 L 9865 9680 L 9834 9711 C 9804 9741 9748 9756 9710 9744 z" stroke-linecap="round" />
</g>
<g transform="matrix(0.23 0 0 0.23 474.5 584.57)"  >
<path style="stroke: rgb(255,255,255); stroke-width: 1; stroke-dasharray: none; stroke-linecap: butt; stroke-dashoffset: 0; stroke-linejoin: miter; stroke-miterlimit: 4; fill: rgb(255,255,255); fill-rule: nonzero; opacity: 1;" vector-effect="non-scaling-stroke"  transform=" translate(-8859.11, -7726.5)" d="M 7880 9363 C 7840 9349 7840 9346 7840 8758 C 7840 8270 7842 8190 7854 8190 C 7862 8190 7885 8181 7904 8169 C 7934 8152 7940 8142 7940 8114 C 7940 8095 7944 8080 7948 8080 C 7953 8080 7961 8054 7966 8023 L 7975 7965 L 8033 7962 L 8090 7959 L 8090 7902 C 8090 7870 8095 7839 8102 7832 C 8109 7825 8138 7820 8167 7820 C 8217 7820 8220 7819 8220 7795 C 8220 7771 8217 7770 8165 7770 L 8110 7770 L 8110 7736 L 8110 7701 L 8163 7698 L 8215 7695 L 8218 7581 C 8219 7517 8226 7460 8232 7453 C 8238 7445 8264 7440 8296 7440 L 8350 7440 L 8350 7375 L 8350 7310 L 8480 7310 L 8610 7310 L 8610 7192 C 8610 7067 8616 7050 8656 7050 C 8677 7050 8678 7046 8677 6983 L 8675 6915 L 8708 6912 C 8736 6909 8740 6905 8740 6879 L 8740 6850 L 8805 6850 L 8870 6850 L 8870 6814 L 8870 6778 L 9000 6782 C 9130 6786 9130 6786 9130 6763 C 9130 6741 9126 6740 9065 6740 L 9000 6740 L 9000 6645 L 9000 6550 L 9035 6550 C 9063 6550 9070 6554 9070 6570 C 9070 6585 9077 6590 9097 6590 L 9123 6590 L 9117 6442 C 9113 6360 9114 6289 9119 6284 C 9124 6279 9125 6258 9123 6237 C 9119 6207 9113 6199 9091 6194 C 9077 6191 9057 6185 9048 6179 C 9038 6174 9023 6170 9015 6170 C 9002 6170 9000 6161 9002 6127 L 9005 6085 L 9063 6086 C 9104 6087 9127 6093 9142 6106 C 9183 6143 9190 6180 9190 6362 C 9190 6457 9195 6552 9201 6573 C 9213 6617 9263 6677 9299 6693 C 9313 6698 9428 6706 9553 6709 L 9781 6715 L 9826 6762 C 9861 6799 9870 6816 9871 6847 C 9878 7057 9881 8472 9875 8479 C 9871 8482 9787 8487 9687 8491 C 9587 8494 9496 8500 9485 8505 C 9444 8523 9407 8556 9387 8595 C 9366 8634 9365 8648 9363 8989 C 9361 9223 9357 9347 9350 9354 C 9339 9365 7910 9374 7880 9363 z" stroke-linecap="round" />
</g>
<g transform="matrix(0.23 0 0 0.23 141.5 734.22)"  >
<path style="stroke: rgb(255,255,255); stroke-width: 1; stroke-dasharray: none; stroke-linecap: butt; stroke-dashoffset: 0; stroke-linejoin: miter; stroke-miterlimit: 4; fill: rgb(255,255,255); fill-rule: nonzero; opacity: 1;" vector-effect="non-scaling-stroke"  transform=" translate(-7394.83, -8434.58)" d="M 7462 9330 C 7390 9297 7313 9223 7277 9150 L 7245 9085 L 7242 8463 C 7240 8038 7243 7840 7250 7840 C 7256 7840 7260 7810 7260 7765 L 7260 7690 L 7293 7690 L 7327 7690 L 7333 7798 C 7337 7863 7335 7906 7330 7908 C 7317 7913 7317 7950 7330 7950 C 7335 7950 7340 7983 7342 8023 C 7345 8087 7348 8096 7368 8105 C 7386 8113 7390 8123 7391 8165 C 7392 8192 7394 8206 7397 8195 C 7400 8184 7406 8171 7411 8165 C 7416 8160 7420 8139 7420 8118 C 7420 8097 7425 8080 7430 8080 C 7436 8080 7440 8045 7440 7995 C 7440 7917 7438 7910 7420 7910 C 7404 7910 7400 7903 7400 7875 C 7400 7844 7403 7840 7425 7840 C 7446 7840 7450 7835 7450 7808 C 7451 7790 7452 7741 7454 7700 C 7456 7659 7458 7601 7459 7573 L 7460 7520 L 7494 7520 L 7528 7520 L 7535 7783 C 7539 7928 7541 8316 7539 8646 C 7537 8975 7539 9269 7543 9298 C 7552 9348 7551 9350 7528 9349 C 7516 9349 7486 9340 7462 9330 z" stroke-linecap="round" />
</g>
<g transform="matrix(0.23 0 0 0.23 694.36 419.44)"  >
<path style="stroke: rgb(255,255,255); stroke-width: 1; stroke-dasharray: none; stroke-linecap: butt; stroke-dashoffset: 0; stroke-linejoin: miter; stroke-miterlimit: 4; fill: rgb(255,255,255); fill-rule: nonzero; opacity: 1;" vector-effect="non-scaling-stroke"  transform=" translate(-9765, -6978.93)" d="M 10185 8471 C 10182 8465 10179 7941 10180 7307 C 10180 6318 10179 6152 10166 6135 C 10153 6116 10137 6115 9902 6112 L 9652 6108 L 9618 6073 L 9585 6039 L 9582 5922 C 9580 5858 9574 5800 9568 5793 C 9563 5787 9545 5778 9529 5775 C 9513 5771 9500 5762 9500 5755 C 9500 5746 9484 5740 9453 5738 L 9405 5735 L 9402 5692 C 9398 5638 9409 5624 9461 5616 C 9495 5611 9501 5606 9498 5589 C 9495 5566 9505 5566 9188 5562 L 9070 5560 L 9070 5520 L 9070 5480 L 9138 5479 C 9175 5478 9286 5478 9385 5479 C 9641 5482 9588 5450 10040 5875 C 10181 6007 10326 6142 10363 6175 C 10410 6216 10436 6248 10445 6275 C 10457 6308 10459 6496 10460 7381 C 10460 8360 10459 8449 10443 8461 C 10422 8479 10196 8487 10185 8471 z" stroke-linecap="round" />
</g>
<g transform="matrix(0.23 0 0 0.23 246.72 627.65)"  >
<path style="stroke: none; stroke-width: 1; stroke-dasharray: none; stroke-linecap: butt; stroke-dashoffset: 0; stroke-linejoin: miter; stroke-miterlimit: 4; fill: rgb(217,57,62); fill-rule: nonzero; opacity: 1;" vector-effect="non-scaling-stroke"  transform=" translate(-7875, -7990)" d="M 7840 7990 L 7840 7890 L 7875 7890 L 7910 7890 L 7910 7938 C 7910 7964 7907 8009 7904 8038 C 7898 8087 7896 8090 7869 8090 L 7840 8090 L 7840 7990 z" stroke-linecap="round" />
</g>
<g transform="matrix(0.23 0 0 0.23 243.24 222.7)"  >
<path style="stroke: none; stroke-width: 1; stroke-dasharray: none; stroke-linecap: butt; stroke-dashoffset: 0; stroke-linejoin: miter; stroke-miterlimit: 4; fill: rgb(217,57,62); fill-rule: nonzero; opacity: 1;" vector-effect="non-scaling-stroke"  transform=" translate(-7860, -6165)" d="M 7840 6184 C 7840 6163 7858 6130 7870 6130 C 7876 6130 7880 6146 7880 6165 C 7880 6193 7876 6200 7860 6200 C 7849 6200 7840 6193 7840 6184 z" stroke-linecap="round" />
</g>
<g transform="matrix(0.23 0 0 0.23 440.71 78.7)"  >
<path style="stroke: none; stroke-width: 1; stroke-dasharray: none; stroke-linecap: butt; stroke-dashoffset: 0; stroke-linejoin: miter; stroke-miterlimit: 4; fill: rgb(217,57,62); fill-rule: nonzero; opacity: 1;" vector-effect="non-scaling-stroke"  transform=" translate(-8750, -5515)" d="M 8700 5515 L 8700 5480 L 8750 5480 L 8800 5480 L 8800 5515 L 8800 5550 L 8750 5550 L 8700 5550 L 8700 5515 z" stroke-linecap="round" />
</g>
<g transform="matrix(0.23 0 0 0.23 394.85 503.03)"  >
<path style="stroke: rgb(255,255,255); stroke-width: 1; stroke-dasharray: none; stroke-linecap: butt; stroke-dashoffset: 0; stroke-linejoin: miter; stroke-miterlimit: 4; fill: rgb(255,255,255); fill-rule: nonzero; opacity: 1;" vector-effect="non-scaling-stroke"  transform=" translate(-8515.09, -7374.01)" d="M 7840 7427 C 7840 6301 7842 6176 7856 6140 C 7865 6118 7881 6095 7891 6090 C 7902 6084 8129 6080 8478 6080 C 8961 6080 9049 6082 9053 6094 C 9056 6102 9052 6111 9044 6114 C 9025 6121 9026 6140 9045 6140 C 9053 6140 9068 6144 9078 6149 C 9087 6154 9116 6164 9143 6171 C 9189 6182 9206 6205 9173 6212 C 9159 6214 9156 6224 9159 6262 C 9160 6287 9157 6311 9151 6314 C 9145 6318 9142 6344 9145 6378 C 9147 6409 9152 6476 9155 6527 L 9160 6618 L 9100 6622 C 9043 6625 9041 6624 9037 6600 C 9035 6586 9032 6605 9031 6643 L 9030 6710 L 9095 6710 L 9160 6710 L 9160 6765 L 9160 6821 L 9030 6814 L 8900 6807 L 8900 6844 L 8900 6880 L 8835 6880 L 8770 6880 L 8770 6915 C 8770 6948 8768 6950 8738 6948 C 8705 6945 8705 6945 8708 6985 C 8710 7007 8716 7027 8721 7028 C 8726 7030 8730 7043 8730 7056 C 8730 7077 8725 7080 8697 7080 C 8645 7080 8640 7092 8640 7222 L 8640 7340 L 8510 7340 L 8380 7340 L 8380 7405 L 8380 7470 L 8327 7470 C 8267 7470 8250 7482 8250 7522 L 8250 7550 L 8380 7550 L 8510 7550 L 8510 7575 C 8510 7599 8509 7599 8445 7593 L 8380 7587 L 8380 7654 L 8380 7720 L 8318 7721 C 8283 7722 8228 7726 8195 7730 L 8135 7737 L 8193 7739 L 8250 7740 L 8250 7795 L 8250 7850 L 8197 7850 C 8168 7850 8139 7855 8132 7862 C 8125 7869 8120 7900 8120 7932 L 8120 7989 L 8063 7992 L 8005 7995 L 7996 8053 C 7991 8084 7983 8110 7978 8110 C 7974 8110 7970 8125 7970 8143 C 7970 8171 7963 8181 7929 8203 C 7903 8220 7880 8228 7868 8225 C 7850 8219 7850 8227 7850 8440 C 7851 8562 7849 8665 7846 8668 C 7843 8671 7840 8112 7840 7427 z M 7869 8033 C 7868 8017 7870 7998 7874 7988 C 7878 7979 7880 7959 7877 7943 C 7874 7919 7873 7920 7871 7952 C 7871 7972 7866 7992 7860 7995 C 7843 8006 7849 8060 7867 8060 C 7870 8060 7871 8048 7869 8033 z M 8336 7658 C 8333 7645 8330 7627 8330 7618 C 8330 7604 8321 7600 8290 7600 L 8250 7600 L 8250 7640 L 8250 7680 L 8296 7680 C 8339 7680 8342 7678 8336 7658 z" stroke-linecap="round" />
</g>
<g transform="matrix(0.23 0 0 0.26 388.04 438.05)"  >
<path style="stroke: rgb(255,255,255); stroke-width: 1; stroke-dasharray: none; stroke-linecap: butt; stroke-dashoffset: 0; stroke-linejoin: miter; stroke-miterlimit: 4; fill: rgb(255,255,255); fill-rule: nonzero; opacity: 1;" vector-effect="non-scaling-stroke"  transform=" translate(-8459.41, -6891.34)" d="M 7240 7469 C 7240 7005 7237 6416 7233 6160 C 7226 5630 7228 5616 7298 5543 C 7367 5472 7311 5475 8495 5476 C 9225 5476 9563 5480 9580 5487 L 9605 5498 L 9578 5505 C 9562 5509 9550 5516 9550 5521 C 9550 5526 9542 5530 9533 5530 C 9519 5530 9518 5532 9529 5539 C 9537 5545 9540 5555 9535 5570 C 9531 5584 9532 5595 9540 5600 C 9563 5614 9535 5643 9494 5647 C 9450 5652 9428 5666 9432 5689 C 9434 5699 9447 5705 9465 5706 C 9482 5706 9520 5710 9552 5714 C 9602 5720 9609 5724 9615 5748 C 9619 5763 9627 5781 9633 5789 C 9640 5797 9646 5824 9647 5849 C 9650 5907 9650 5904 9644 5971 C 9639 6023 9640 6028 9664 6044 C 9696 6065 9697 6074 9665 6088 C 9642 6098 9640 6097 9640 6077 C 9640 6065 9631 6048 9620 6040 C 9603 6028 9600 6014 9600 5958 C 9600 5910 9604 5889 9615 5883 C 9624 5878 9627 5866 9624 5852 C 9620 5840 9615 5832 9611 5834 C 9607 5837 9603 5829 9603 5818 C 9599 5768 9589 5767 9318 5769 C 9179 5770 8762 5772 8392 5775 C 7773 5778 7715 5780 7669 5797 C 7614 5816 7578 5847 7552 5895 C 7537 5922 7535 6003 7532 6738 L 7529 7550 L 7508 7550 C 7489 7550 7488 7554 7494 7597 C 7497 7624 7495 7657 7488 7676 C 7479 7701 7479 7715 7487 7732 C 7505 7767 7511 7917 7496 7929 C 7489 7935 7480 7937 7477 7933 C 7473 7930 7470 7968 7470 8018 C 7470 8073 7466 8110 7460 8110 C 7455 8110 7450 8128 7450 8149 C 7450 8171 7446 8192 7440 8195 C 7435 8198 7430 8212 7430 8226 C 7430 8243 7424 8250 7411 8250 C 7369 8250 7360 8240 7360 8189 C 7360 8162 7357 8140 7352 8140 C 7348 8140 7346 8160 7348 8184 C 7350 8209 7347 8237 7341 8247 C 7333 8261 7331 8250 7330 8198 C 7330 8161 7326 8128 7320 8125 C 7315 8122 7310 8088 7310 8049 C 7310 8010 7306 7980 7300 7980 C 7295 7980 7290 7955 7290 7924 C 7290 7894 7294 7871 7298 7874 C 7303 7877 7304 7865 7301 7847 C 7296 7815 7295 7815 7292 7843 C 7290 7858 7282 7870 7274 7870 C 7258 7870 7258 7864 7255 8113 C 7254 8216 7250 8303 7247 8307 C 7243 8310 7240 7933 7240 7469 z M 7297 7763 C 7294 7753 7292 7761 7292 7780 C 7292 7799 7294 7807 7297 7798 C 7299 7788 7299 7772 7297 7763 z M 9477 5518 C 9490 5504 9477 5503 9358 5505 C 9285 5507 9197 5508 9163 5509 C 9128 5509 9100 5514 9100 5520 C 9100 5525 9156 5531 9233 5533 C 9416 5538 9459 5535 9477 5518 z" stroke-linecap="round" />
</g>
</svg>